PathFileType	4	(X/Y/Z)	path1_12_0-587.trc
DataRate	CameraRate	NumFrames	NumMarkers	Units	OrigDataRate	OrigDataStartFrame	OrigNumFrames
30	30	4	22	m	30	0	587
Frame#	Time	Hip			RHip			RKnee			RAnkle			RBigToe			RSmallToe			RHeel			LHip			LKnee			LAnkle			LBigToe			LSmallToe			LHeel			Neck			Head			Nose			RShoulder			RElbow			RWrist			LShoulder			LElbow			LWrist		
		X1	Y1	Z1	X2	Y2	Z2	X3	Y3	Z3	X4	Y4	Z4	X5	Y5	Z5	X6	Y6	Z6	X7	Y7	Z7	X8	Y8	Z8	X9	Y9	Z9	X10	Y10	Z10	X11	Y11	Z11	X12	Y12	Z12	X13	Y13	Z13	X14	Y14	Z14	X15	Y15	Z15	X16	Y16	Z16	X17	Y17	Z17	X18	Y18	Z18	X19	Y19	Z19	X20	Y20	Z20	X21	Y21	Z21	X22	Y22	Z22
1	0.0333333333333333	2.6046554048239976	0.8334843766953168	0.6061707880696459	2.6108492780812416	0.8091061360171254	0.5248199552087495	2.587118563539468	0.46673254692668237	0.5065046874595799	2.661669879988629	0.09007407325369363	0.5353267063245514	2.4749561558085014	0.02004432048390384	0.5027185142512315	2.518629489753423	0.022285083595130067	0.44485272128322706	2.703873691905608	0.03205895928559465	0.522106938371903	2.592939515128273	0.8074551827770348	0.6949373660275957	2.6026583481385814	0.438172533433083	0.7079441711060325	2.6698156410517755	0.08882149850240269	0.6795438458814005	2.4884009744848536	0.011022973328713916	0.7069621431236726	2.543039572883966	0.0008195874373159947	0.7522490087481647	2.7169098575656205	0.036328604655155555	0.6984928362394757	2.5745494527701114	1.467981211652614	0.619429207963367	2.4864456423353354	1.684478633083509	0.6022774728994903	2.433371802249299	1.593612992198425	0.5882189362131897	2.6269276672687645	1.373399096781223	0.45554954139014636	2.640098687332836	1.0862991705687979	0.402761113565322	2.617154021862579	0.8484128484874709	0.399953900934818	2.600301678962287	1.3549890416837178	0.745299728556862	2.654302190244417	1.0488491178933783	0.7681867949200182	2.6338288249415047	0.8381519050535287	0.8111461856958032
2	0.0666666666666666	2.6030896260116103	0.8360356911986414	0.6053689753307262	2.6113321590021292	0.8095280315612661	0.5279324206851859	2.5880650755980423	0.4696767717220234	0.5072073695677474	2.663009444948508	0.09413258490706551	0.5348778828149139	2.4752202525279707	0.027037410153810577	0.5033446626588811	2.514844703781421	0.024216800071254402	0.44510735443471544	2.7064204375658067	0.032502511545818125	0.5271207946953484	2.5929960436592654	0.8088509146541333	0.6946094971155488	2.604439634922514	0.43965491644570726	0.6938455790620104	2.66843591801022	0.08889638316799843	0.6803039462398986	2.4932340773388084	0.014675637656910049	0.7114042511089909	2.5331763230023028	0.010535003678362579	0.7521228869609259	2.716293401799018	0.03250051401049073	0.6954514082793074	2.571796327889112	1.4644368123829437	0.6201081428976756	2.4857164582778104	1.6843435560451079	0.6029148688321214	2.4334727787347803	1.595793179332667	0.5887846033109511	2.6244664555978705	1.364132246033131	0.44252302209901223	2.63930600951757	1.0846649184822488	0.4019406233114448	2.616088185683696	0.8478808988721126	0.3995330472847238	2.5896711466276137	1.3520574905722447	0.7617812981108794	2.6543424270750138	1.0479899929925838	0.7685602590757088	2.634101457544691	0.8403647707411117	0.8094551755877162
3	0.1	2.6018214276784644	0.8382894356204232	0.6046981396718046	2.6116379139400485	0.8099894929117015	0.5303262129491024	2.5888690878956657	0.4720284512441496	0.5077760904112234	2.663967418275021	0.09757072175060791	0.5343958375365966	2.475527238230522	0.03288088999434647	0.5038147078948437	2.511756349150121	0.025781778848656286	0.445386893592272	2.7084991388435764	0.03270779415928597	0.5313898103343133	2.593059049949154	0.8101488591864427	0.6942510235556609	2.6059340580522714	0.44091669073780615	0.6825866722546924	2.6672419472546482	0.08898141471507086	0.6809195026148945	2.49701338055224	0.017640372346775388	0.714737126437162	2.525142401761662	0.018380754978425905	0.7520296876035564	2.7159646537412883	0.029255556781100964	0.6929525685326692	2.569596986606097	1.4614854185614619	0.6204873610571783	2.4852348744227966	1.6841868798977853	0.603438075277575	2.4335655330022297	1.5976441349771853	0.5893296939561552	2.6221398391529243	1.3558147768691273	0.4307419256161452	2.6385928750371277	1.0834172525782488	0.4012595494735721	2.61520110926506	0.8476792379269407	0.39901313833625907	2.581274638323163	1.3498952486467155	0.774653079120284	2.6543724563029043	1.0472991129878064	0.7688788031514647	2.6342924420808362	0.8420879268569036	0.808250663039121
4	0.1333333333333333	2.6010145090860086	0.8400648538388179	0.6042500554790231	2.6117969963858867	0.8104319984009858	0.5317061112932964	2.589486228392954	0.4735432230496924	0.5081575947637945	2.6645326757686676	0.09990005319379106	0.5341219646312283	2.475939944517238	0.03712036694336776	0.5041853893653937	2.509703103291443	0.02680312749460441	0.4457031190952925	2.7097362967765846	0.03245282711417778	0.5343106931379532	2.593141613644293	0.8112175178095266	0.6939082084653037	2.6070396903716393	0.44175505524390335	0.6754460565881281	2.666358427758225	0.08900109309817564	0.6812660257470583	2.4991090439268007	0.019474017513518682	0.7159176944812524	2.520175354492079	0.023047143058780147	0.7518281706231558	2.715943198924215	0.026979374471047098	0.6912228403675593	2.568146465357867	1.4593715273404464	0.6204348986446471	2.485395295491202	1.6842018774714491	0.6036072818373202	2.433649842306439	1.5989791036345515	0.5898467093432938	2.620277903344478	1.3494243399169086	0.42152565923900104	2.638026935281722	1.0827073982298272	0.4007964025700497	2.6145930941188316	0.847946903300813	0.3983864884457225	2.5762557719529977	1.3488320273187897	0.782222926776405	2.6543676538981678	1.046918758545906	0.7691547911972987	2.6344275195841638	0.8431130529543921	0.8077228255787852
